<?xml version="1.0" encoding="UTF-8" standalone="no"?>
<!-- Created with Inkscape (http://www.inkscape.org/) -->

<svg
   xmlns:dc="http://purl.org/dc/elements/1.1/"
   xmlns:cc="http://creativecommons.org/ns#"
   xmlns:rdf="http://www.w3.org/1999/02/22-rdf-syntax-ns#"
   xmlns:svg="http://www.w3.org/2000/svg"
   xmlns="http://www.w3.org/2000/svg"
   xmlns:sodipodi="http://sodipodi.sourceforge.net/DTD/sodipodi-0.dtd"
   xmlns:inkscape="http://www.inkscape.org/namespaces/inkscape"
   width="744.09448819"
   height="1052.3622047"
   id="svg2"
   version="1.1"
   inkscape:version="0.48.5 r10040"
   sodipodi:docname="New document 1">
  <defs
     id="defs4" />
  <sodipodi:namedview
     id="base"
     pagecolor="#ffffff"
     bordercolor="#666666"
     borderopacity="1.0"
     inkscape:pageopacity="0.0"
     inkscape:pageshadow="2"
     inkscape:zoom="0.98994949"
     inkscape:cx="532.01432"
     inkscape:cy="321.44125"
     inkscape:document-units="px"
     inkscape:current-layer="layer1"
     showgrid="false" />
  <metadata
     id="metadata7">
    <rdf:RDF>
      <cc:Work
         rdf:about="">
        <dc:format>image/svg+xml</dc:format>
        <dc:type
           rdf:resource="http://purl.org/dc/dcmitype/StillImage" />
        <dc:title></dc:title>
      </cc:Work>
    </rdf:RDF>
  </metadata>
  <g
     inkscape:label="Layer 1"
     inkscape:groupmode="layer"
     id="layer1">
    <path
       style="fill:#000000"
       d="m 426.04406,724.59192 c -1.29424,-0.42077 -2.26825,-1.30562 -2.86539,-2.60302 l -0.38353,-0.83333 0,-101.16667 c 0,-82.11986 0.041,-101.54321 0.21768,-103.16666 0.92125,-8.46389 2.48419,-15.55684 4.68377,-21.25584 2.69003,-6.96973 4.40293,-10.43295 8.57017,-17.3275 2.00136,-3.31118 3.24621,-5.0893 5.95083,-8.5 2.69938,-3.40411 4.40433,-5.16666 4.99778,-5.16666 l 0.44579,0 0.10865,1.77593 c 0.1468,2.3992 0.12828,5.61588 -0.0499,8.67792 -0.17356,2.982 -0.0718,2.74023 -3.21276,7.62948 -1.06002,1.65 -2.71964,4.53817 -3.68804,6.41815 -5.35826,10.40217 -8.0723,20.38627 -8.94751,32.91518 -0.42669,6.1083 0.28565,14.05369 1.93976,21.63589 0.78972,3.61996 2.5037,8.9499 4.4745,13.91426 1.12297,2.8287 1.14172,2.64639 -0.56055,5.44985 -0.61226,1.00834 -1.51845,2.57069 -2.01373,3.4719 -1.3059,2.37614 -2.06538,2.86895 -3.05157,1.98009 -0.23946,-0.21584 -0.32935,-0.22757 -0.43488,-0.0568 -0.3364,0.54428 -0.3916,12.59823 -0.36228,79.10481 0.0212,48.11775 -0.0243,71.5888 -0.14055,72.47009 -0.0945,0.71688 -0.31154,1.61688 -0.4822,2 -0.37689,0.8461 -1.47402,1.96918 -2.3211,2.37595 -0.68924,0.33098 -2.22504,0.46826 -2.8749,0.25698 z M 224.46181,615.0741 c -0.73334,-0.0743 -2.27213,-0.21523 -3.41955,-0.31331 -2.74756,-0.23485 -5.91578,-0.82444 -10.47182,-1.94874 -5.77995,-1.42633 -8.4509,-2.30186 -13.94197,-4.57015 -3.7724,-1.55835 -11.65845,-5.91296 -15.33333,-8.46696 -8.02594,-5.57794 -15.67431,-12.943 -21.29827,-20.50937 -2.53707,-3.41332 -7.83495,-12.35388 -9.24995,-15.61 -2.53326,-5.82933 -4.459,-11.36757 -5.62145,-16.16667 -1.23345,-5.09225 -1.44832,-6.43346 -2.26965,-14.16666 -0.22694,-2.13677 -0.0982,-14.3735 0.17627,-16.75 1.00016,-8.6609 2.49086,-15.37404 4.6645,-21.00584 2.33637,-6.05341 3.73682,-9 6.92838,-14.5775 2.97539,-5.19971 5.31323,-8.56711 9.08318,-13.08333 5.28581,-6.33213 12.15308,-12.39697 18.86559,-16.66117 7.20179,-4.57503 11.65924,-6.83935 18.88807,-9.59487 4.48962,-1.71138 12.12284,-3.62721 16.58333,-4.16219 1.2375,-0.14842 2.85,-0.34175 3.58333,-0.42961 3.33479,-0.39958 5.20685,-0.48672 10.5,-0.48877 5.70586,-0.002 6.45631,0.0395 12.08334,0.67168 3.43482,0.38588 4.85694,0.63307 7.66666,1.33257 1.05417,0.26245 2.88309,0.713 4.06426,1.00123 2.58318,0.63035 6.79102,2.05642 9.42741,3.19501 1.05875,0.45725 2.5625,1.05707 3.34167,1.33292 1.55813,0.55163 2.19008,0.87535 7.08333,3.62843 5.27707,2.96904 9.53903,5.90062 14.08333,9.68722 2.6672,2.22248 7.57797,7.02683 8.10942,7.9337 l 0.40895,0.6978 -0.36353,0.7197 c -0.43829,0.8677 -3.30104,4.8034 -4.13005,5.67802 -0.32584,0.34375 -0.70337,0.625 -0.83895,0.625 -0.13559,0 -1.82662,-1.56122 -3.75785,-3.46937 -4.6667,-4.61093 -8.18629,-7.50893 -13.34465,-10.98785 -4.20998,-2.83928 -11.83829,-6.63925 -16.58334,-8.2608 -6.00236,-2.05122 -10.82149,-3.23608 -16.66666,-4.09778 -6.96392,-1.02662 -17.24247,-0.78589 -24.66667,0.5777 -5.73988,1.05423 -10.81819,2.50308 -15.57743,4.44426 -10.20558,4.16262 -18.65131,9.65122 -26.33543,17.11457 -6.68819,6.49603 -10.93371,12.25428 -15.43108,20.92937 -5.17421,9.98068 -7.89843,20.01906 -8.84245,32.58323 -0.3003,3.99682 -0.011,10.14132 0.69442,14.75 0.60234,3.93512 0.67036,4.30882 1.34291,7.37817 0.6329,2.8884 2.70149,9.3619 4.12373,12.90488 0.67198,1.67402 3.42877,7.17668 4.54283,9.0677 2.62982,4.46388 6.09539,9.41692 8.50065,12.14925 2.31202,2.62642 5.60618,5.99902 7.03964,7.20728 0.83905,0.70724 2.12554,1.81457 2.85888,2.46075 3.80286,3.3509 9.4339,7.02347 15.13257,9.86949 5.39207,2.6929 6.76415,3.23416 13.20076,5.20755 3.32543,1.01953 8.8638,2.25203 10.91667,2.42938 0.59583,0.0515 1.72083,0.19602 2.5,0.3212 4.53097,0.72797 12.54517,0.77487 18.41666,0.10778 9.23364,-1.04908 19.94126,-4.33916 28.07093,-8.62523 2.35471,-1.24143 7.33045,-4.25713 8.76241,-5.31072 0.64166,-0.47211 1.87863,-1.37793 2.74882,-2.01293 3.82932,-2.79438 9.69283,-8.48077 13.90799,-13.48788 1.69475,-2.01317 2.03165,-2.50812 5.27514,-7.75 1.21948,-1.97084 2.46428,-3.9289 2.76621,-4.35125 0.54224,-0.75849 1.93339,-3.56175 3.13409,-6.31542 2.82863,-6.48715 5.25233,-15.44547 5.99726,-22.16667 0.1473,-1.32916 0.33969,-3.00985 0.4275,-3.73483 0.0878,-0.725 0.15935,-3.3125 0.15897,-5.75 -0.002,-7.4689 -0.66567,-12.9175 -2.42082,-19.8485 -1.12441,-4.44028 -1.68331,-6.17452 -3.24956,-10.08333 -0.29384,-0.73334 -0.74894,-1.94725 -1.01132,-2.6976 -0.4464,-1.27659 -0.46207,-1.40682 -0.24358,-2.02604 0.4975,-1.41006 4.44821,-7.37133 5.03425,-7.59621 0.41761,-0.16025 1.06126,0.54961 1.8634,2.05506 1.14066,2.1408 3.15615,7.02357 4.37463,10.59812 1.38893,4.07457 3.43937,12.05873 3.65958,14.25 0.0875,0.87083 0.31492,2.70833 0.50534,4.08333 0.28381,2.04949 0.363,3.70625 0.43945,9.19367 0.094,6.74742 -0.009,8.95037 -0.63922,13.63967 -0.0985,0.73333 -0.23942,2.00833 -0.3131,2.83333 -0.14517,1.62507 -1.51697,7.76042 -2.34328,10.48038 -0.72364,2.38192 -2.12822,6.48915 -2.65705,7.76962 -1.55125,3.75615 -2.03217,4.8301 -3.125,6.97867 -0.67009,1.31745 -1.43069,2.70495 -1.6902,3.08333 -0.25952,0.3784 -0.71309,1.16702 -1.00792,1.75248 -0.65868,1.30792 -4.64373,6.99352 -8.48248,12.10219 -4.86277,6.47145 -12.99891,13.72946 -20.94244,18.6821 -3.14621,1.96161 -8.80467,5.04448 -10.84125,5.90658 -0.91231,0.38618 -2.67125,1.13122 -3.90875,1.65562 -2.34946,0.9956 -5.42711,2.09428 -7.41666,2.64766 -0.64167,0.17847 -1.80469,0.51182 -2.5845,0.74079 -2.24263,0.65848 -6.99417,1.57513 -10.08217,1.94505 -1.55833,0.18666 -3.35833,0.42203 -4,0.52305 -1.41246,0.22236 -14.93063,0.34363 -16.83333,0.15101 z m 139.66666,-0.0115 c -0.73333,-0.0811 -2.19583,-0.22096 -3.25,-0.31078 -3.09841,-0.26397 -7.5754,-1.16188 -12.83333,-2.57388 -4.77752,-1.283 -8.07158,-2.45979 -13.41667,-4.79305 -1.23421,-0.53875 -5.32888,-2.75964 -8.66666,-4.70064 -5.6915,-3.30975 -11.67157,-7.90443 -16.69457,-12.82703 -3.03662,-2.9759 -3.47113,-3.54618 -3.33608,-4.37837 0.17206,-1.06033 4.31653,-6.7454 5.0156,-6.88003 0.2312,-0.0445 1.16228,0.80195 3.41643,3.10595 1.70423,1.74195 3.79707,3.75598 4.65073,4.47565 0.85367,0.71965 2.01617,1.70643 2.58334,2.19285 4.49381,3.85393 12.24268,8.5729 18.44788,11.23457 6.48377,2.78115 15.48767,5.32155 21.47355,6.05866 1.06872,0.1316 2.54312,0.33004 3.27645,0.44095 0.85413,0.12919 3.39987,0.19952 7.08333,0.1957 6.01664,-0.006 8.07554,-0.15716 12.66667,-0.92848 2.95873,-0.49707 10.09492,-2.29765 13.33333,-3.36423 4.74382,-1.56239 10.6528,-4.32272 15.41667,-7.20177 1.46667,-0.88638 2.92105,-1.72015 3.23195,-1.8528 1.04645,-0.4465 1.06953,-0.3473 1.12083,4.81777 0.0505,5.08746 0.0827,4.92563 -1.14688,5.77158 -1.07325,0.73843 -5.02325,2.89418 -6.53923,3.56887 -9.6014,4.27308 -16.90697,6.39901 -25.33334,7.37198 -1.28333,0.14818 -2.82083,0.3493 -3.41666,0.44692 -1.3653,0.22366 -15.27859,0.32923 -17.08334,0.12961 z m 140.33334,0.0115 c -0.73334,-0.0743 -2.27214,-0.21523 -3.41955,-0.31331 -2.81834,-0.2409 -5.96492,-0.83272 -10.74759,-2.02145 -6.07886,-1.5109 -9.6841,-2.7431 -15.6662,-5.35444 -1.22036,-0.53271 -5.25616,-2.71993 -8.66666,-4.69695 -5.5987,-3.24546 -11.5399,-7.8056 -16.6487,-12.77856 -2.7422,-2.6693 -3.6013,-3.6982 -3.6013,-4.3131 0,-0.64365 2.97148,-5.25072 4.19015,-6.4965 0.90856,-0.9288 1.13678,-0.79327 4.55985,2.70781 1.65,1.6876 3.69845,3.65629 4.55211,4.37484 0.85367,0.71855 2.01617,1.70443 2.58334,2.19085 4.49381,3.85393 12.24268,8.5729 18.44788,11.23456 6.48377,2.78115 15.48767,5.32155 21.47355,6.05867 1.06872,0.1316 2.54312,0.33003 3.27645,0.44095 0.85413,0.12918 3.39987,0.19952 7.08333,0.1957 7.96252,-0.008 11.26289,-0.41347 19,-2.33273 7.1167,-1.76537 11.24785,-3.27865 17.31892,-6.34407 8.24018,-4.16065 14.31578,-8.63153 21.23995,-15.63 4.97797,-5.0314 7.71568,-8.50752 10.96633,-13.92413 1.23777,-2.0625 2.55664,-4.3125 2.93082,-5 1.28407,-2.35919 4.33515,-9.57184 5.18198,-12.25 1.17744,-3.72365 2.83895,-10.64354 3.18144,-13.25 0.74548,-5.67349 0.74613,-5.68374 0.7354,-11.66667 -0.012,-6.66863 -0.25067,-9.3417 -1.30232,-14.58333 -1.57227,-7.83664 -2.94173,-11.95135 -6.85057,-20.58334 -1.47568,-3.2588 -5.4995,-9.85026 -8.03521,-13.1626 -4.7545,-6.21068 -10.78357,-12.11921 -17.0334,-16.69286 -4.15424,-3.04009 -6.90289,-4.66882 -12.5,-7.40695 -6.4708,-3.16554 -13.68437,-5.5789 -19.40454,-6.49197 -0.90998,-0.14527 -2.14748,-0.37922 -2.75,-0.5199 -2.6785,-0.62543 -4.83206,-0.7802 -11.84546,-0.85132 -5.77132,-0.0585 -7.23405,-0.0252 -8.83334,0.20135 -1.05416,0.1493 -2.47916,0.35082 -3.16666,0.44782 -1.0963,0.15467 -5.6504,1.14238 -8.83334,1.9158 -1.0644,0.25865 -4.94588,1.42817 -6.58333,1.9836 -3.49838,1.18668 -9.0967,3.80767 -13.16667,6.1643 -4.70701,2.72548 -4.81176,2.77617 -5.18105,2.50627 -0.29816,-0.21794 -0.32266,-0.53059 -0.37605,-4.79887 l -0.0571,-4.56575 0.4369,-0.51922 c 1.25502,-1.4915 8.50359,-5.11061 15.0899,-7.53418 4.23642,-1.55888 11.86399,-3.43053 16.00407,-3.92708 1.2375,-0.14842 2.85,-0.34175 3.58333,-0.42961 3.33479,-0.39958 5.20685,-0.48672 10.5,-0.48877 5.70587,-0.002 6.4563,0.0395 12.08334,0.67168 3.43483,0.38588 4.85695,0.63307 7.66666,1.33257 1.05417,0.26245 2.88309,0.713 4.06427,1.00123 2.58317,0.63035 6.79102,2.05642 9.4274,3.19501 1.05875,0.45725 2.5625,1.05707 3.34167,1.33292 1.5562,0.55095 2.18023,0.87048 7.08333,3.627 7.643,4.29687 13.48802,8.71462 19.50937,14.74543 5.1455,5.1536 10.6886,12.13427 12.9809,16.34744 0.34911,0.64166 1.1473,2.03691 1.77375,3.10055 2.68058,4.55135 4.76728,9.16346 6.66566,14.73278 1.38895,4.07473 3.43935,12.05885 3.65955,14.25 0.0875,0.87083 0.3148,2.70833 0.50507,4.08333 0.28225,2.03977 0.36313,3.7135 0.43938,9.09175 0.0933,6.5844 -0.0469,9.61552 -0.6358,13.74159 -0.0916,0.64166 -0.23046,1.87916 -0.30863,2.75 -0.15222,1.6957 -1.50862,7.79118 -2.35072,10.56371 -2.0874,6.87269 -4.80228,13.41465 -7.16681,17.26962 -0.47792,0.77917 -1.31465,2.24167 -1.85942,3.25 -1.92942,3.57127 -5.14377,8.09362 -8.94385,12.58333 -5.7384,6.77979 -13.67382,13.5475 -21.08707,17.98407 -3.34533,2.00205 -7.83126,4.4052 -9.68138,5.18638 -0.91667,0.38705 -2.67917,1.13279 -3.91667,1.65719 -2.34946,0.9956 -5.42711,2.09428 -7.41666,2.64766 -0.64167,0.17847 -1.8047,0.51182 -2.5845,0.74079 -2.24264,0.65848 -6.99417,1.57513 -10.08217,1.94505 -1.55833,0.18666 -3.35833,0.42203 -4,0.52305 -1.41247,0.22236 -14.93063,0.34363 -16.83333,0.15101 z m -67.6985,-28.2102 c -0.0741,-0.11458 -0.1589,-2.69315 -0.18834,-5.73016 l -0.0535,-5.52184 0.66659,-1.32575 c 0.3666,-0.72916 1.76661,-3.19433 3.11113,-5.47816 3.22235,-5.47359 4.01423,-6.9625 4.5094,-8.47857 0.22712,-0.69537 0.7197,-1.95647 1.09463,-2.80242 2.75952,-6.22625 5.13935,-15.03248 5.8881,-21.7881 0.1473,-1.32916 0.33969,-3.00985 0.4275,-3.73483 0.24245,-2.00177 0.1909,-8.79485 -0.0937,-12.35015 -0.4898,-6.11822 -1.11945,-9.55893 -3.00393,-16.41502 -0.50942,-1.85333 -1.21485,-3.82851 -3.18459,-8.91666 -0.70961,-1.83309 -0.7344,-2.41317 -0.15216,-3.56217 0.56433,-1.11363 2.37173,-4.16445 3.54246,-5.9795 0.81959,-1.27063 0.92915,-1.375 1.44342,-1.375 0.34485,0 0.67125,0.12678 0.85818,0.33333 0.427,0.47184 0.5169,0.42494 0.71877,-0.375 0.12527,-0.49635 0.20568,-23.30383 0.26875,-76.20991 0.079,-66.33693 0.12022,-75.60344 0.33913,-76.34063 0.5132,-1.72812 2.36302,-3.15005 4.09002,-3.14395 1.5889,0.006 3.29628,1.04806 4.04607,2.47037 0.3537,0.67094 0.36206,0.86815 0.49696,11.69775 0.0755,6.05842 0.0642,51.35842 -0.025,100.66667 -0.17216,95.11124 -0.12243,89.61995 -0.86246,95.2347 -0.1027,0.77917 -0.24772,2.09167 -0.32227,2.91667 -0.14712,1.628 -1.52097,7.76852 -2.34483,10.48038 -0.72364,2.38192 -2.12822,6.48915 -2.65705,7.76962 -1.53445,3.71543 -2.02489,4.81485 -3.04672,6.82982 -2.01607,3.97551 -3.14292,5.66001 -11.7161,17.5141 -2.38283,3.29471 -3.42445,4.2725 -3.85038,3.61441 z M 293.14674,568.15002 c -0.42315,-0.42313 -2.36422,-4.2029 -3.164,-6.16112 -0.41183,-1.00833 -0.98442,-2.39583 -1.27243,-3.08333 -2.48353,-5.92853 -5.02137,-16.13738 -5.73832,-23.08333 -0.91583,-8.87267 -0.6618,-17.38039 0.74895,-25.08334 2.13843,-11.67616 5.12647,-19.88965 10.79265,-29.66666 1.25587,-2.167 2.5001,-4.01465 4.73233,-7.02735 1.0416,-1.40579 2.31452,-3.15599 2.82872,-3.88932 1.41817,-2.02257 5.14162,-6.23185 7.74008,-8.75 6.07832,-5.8904 12.19309,-10.24272 21.51084,-15.3108 2.20831,-1.20113 6.07995,-2.89903 10.13625,-4.44524 4.81425,-1.83512 12.18365,-3.63856 17.33333,-4.24181 1.65,-0.19329 3.525,-0.42809 4.16667,-0.52179 1.92828,-0.28157 9.7635,-0.46097 13.41666,-0.30719 1.87917,0.0791 4.65417,0.29191 6.16667,0.47293 1.5125,0.18101 3.2375,0.37976 3.83333,0.44167 1.29247,0.1343 3.6543,0.60252 5.83334,1.15643 0.87083,0.22137 2.54975,0.63789 3.73093,0.92561 2.4745,0.60275 6.8377,2.06825 9.01907,3.02929 0.825,0.36347 2.08078,0.8789 2.79063,1.14542 2.04813,0.76896 3.15133,1.30701 6.7927,3.31295 8.64077,4.75998 14.18095,8.86426 20.8618,15.45485 2.6453,2.60955 3.10383,3.26836 2.82717,4.06203 -0.19087,0.5475 -3.51035,5.49215 -4.16267,6.20065 -0.2321,0.25208 -0.57965,0.45833 -0.77233,0.45833 -0.23359,0 -1.59805,-1.23823 -4.09382,-3.7151 -3.77067,-3.74208 -5.57083,-5.31263 -9.24348,-8.06448 -4.62132,-3.46265 -7.26084,-5.0529 -13.25,-7.98283 -6.4708,-3.16554 -13.68437,-5.5789 -19.40454,-6.49197 -0.90998,-0.14527 -2.14748,-0.37922 -2.75,-0.5199 -2.6785,-0.62543 -4.83206,-0.7802 -11.84546,-0.85132 -5.77132,-0.0585 -7.23405,-0.0252 -8.83334,0.20135 -1.05416,0.1493 -2.47916,0.35082 -3.16666,0.44782 -1.07999,0.15235 -5.30397,1.06668 -8.83334,1.91205 -1.00203,0.24002 -3.33423,0.93115 -5.75026,1.70407 -0.55015,0.176 -2.16265,0.78886 -3.58334,1.36193 -9.98288,4.02678 -18.69025,9.65252 -26.16505,16.90493 -4.69701,4.55727 -7.06918,7.43439 -10.16801,12.33244 -1.14584,1.81111 -2.82729,4.4295 -3.73655,5.81865 -0.90929,1.38913 -2.09015,3.44786 -2.62417,4.57496 -4.7127,9.9467 -7.10623,19.24077 -7.99233,31.03407 -0.29807,3.96687 -0.006,10.25895 0.67743,14.58333 0.17378,1.1 0.35768,2.3542 0.40865,2.78712 0.051,0.43293 0.39963,2.23293 0.7748,4 0.76598,3.6079 2.93937,10.40235 4.3561,13.61805 1.12083,2.54407 1.09752,2.78842 -0.53757,5.63328 -1.52295,2.64979 -3.28721,5.39355 -3.64165,5.66347 -0.35253,0.26848 -0.44556,0.26342 -0.74978,-0.0408 z"
       id="path2996"
       inkscape:connector-curvature="0" />
  </g>
</svg>
